<svg id="Group_108" data-name="Group 108" xmlns="http://www.w3.org/2000/svg" xmlns:xlink="http://www.w3.org/1999/xlink" width="211.437" height="268.555" viewBox="0 0 211.437 268.555">
  <defs>
    <linearGradient id="linear-gradient" y1="0.479" x2="1" y2="0.483" gradientUnits="objectBoundingBox">
      <stop offset="0" stop-color="#1594e0"/>
      <stop offset="1" stop-color="#002a42"/>
    </linearGradient>
  </defs>
  <rect id="Rectangle_26" data-name="Rectangle 26" width="201.416" height="268.555" rx="15" transform="translate(10.021 0)"/>
  <rect id="Rectangle_24" data-name="Rectangle 24" width="201.416" height="268.555" rx="15" transform="translate(0 0)" fill="url(#linear-gradient)"/>
  <rect id="Rectangle_25" data-name="Rectangle 25" width="160.331" height="42.087" transform="translate(18.037 21.043)" fill="#e9e9e9"/>
  <rect id="Rectangle_27" data-name="Rectangle 27" width="5.01" height="42.087" transform="translate(18.037 21.043)" fill="#0067a4"/>
  <g id="Group_107" data-name="Group 107" transform="translate(23.048 84.174)">
    <rect id="Rectangle_29" data-name="Rectangle 29" width="33.068" height="27.056" rx="4" transform="translate(2.004 0)" fill="#002a42"/>
    <rect id="Rectangle_28" data-name="Rectangle 28" width="33.068" height="27.056" rx="4" transform="translate(0 0)" fill="#9055a2"/>
    <rect id="Rectangle_30" data-name="Rectangle 30" width="33.068" height="27.056" rx="4" transform="translate(42.087 0)" fill="#002a42"/>
    <rect id="Rectangle_31" data-name="Rectangle 31" width="33.068" height="27.056" rx="4" transform="translate(82.17 0)" fill="#002a42"/>
    <rect id="Rectangle_32" data-name="Rectangle 32" width="33.068" height="27.056" rx="4" transform="translate(122.252 0)" fill="#002a42"/>
    <rect id="Rectangle_33" data-name="Rectangle 33" width="33.068" height="27.056" rx="4" transform="translate(2.004 34.07)" fill="#002a42"/>
    <rect id="Rectangle_34" data-name="Rectangle 34" width="33.068" height="27.056" rx="4" transform="translate(42.087 34.07)" fill="#002a42"/>
    <rect id="Rectangle_35" data-name="Rectangle 35" width="33.068" height="27.056" rx="4" transform="translate(82.17 34.07)" fill="#002a42"/>
    <rect id="Rectangle_36" data-name="Rectangle 36" width="33.068" height="27.056" rx="4" transform="translate(122.252 34.07)" fill="#002a42"/>
    <rect id="Rectangle_37" data-name="Rectangle 37" width="33.068" height="27.056" rx="4" transform="translate(2.004 68.141)" fill="#002a42"/>
    <rect id="Rectangle_38" data-name="Rectangle 38" width="33.068" height="27.056" rx="4" transform="translate(42.087 68.141)" fill="#002a42"/>
    <rect id="Rectangle_39" data-name="Rectangle 39" width="33.068" height="27.056" rx="4" transform="translate(82.17 68.141)" fill="#002a42"/>
    <rect id="Rectangle_40" data-name="Rectangle 40" width="33.068" height="27.056" rx="4" transform="translate(2.004 102.211)" fill="#002a42"/>
    <rect id="Rectangle_41" data-name="Rectangle 41" width="33.068" height="27.056" rx="4" transform="translate(42.087 102.211)" fill="#002a42"/>
    <rect id="Rectangle_42" data-name="Rectangle 42" width="33.068" height="27.056" rx="4" transform="translate(82.17 102.211)" fill="#002a42"/>
    <rect id="Rectangle_43" data-name="Rectangle 43" width="33.068" height="27.056" rx="4" transform="translate(2.004 136.281)" fill="#002a42"/>
    <rect id="Rectangle_44" data-name="Rectangle 44" width="33.068" height="27.056" rx="4" transform="translate(42.087 136.281)" fill="#002a42"/>
    <rect id="Rectangle_45" data-name="Rectangle 45" width="33.068" height="27.056" rx="4" transform="translate(82.17 136.281)" fill="#002a42"/>
    <rect id="Rectangle_46" data-name="Rectangle 46" width="33.068" height="95.197" rx="4" transform="translate(122.252 68.141)" fill="#002a42"/>
    <rect id="Rectangle_28-2" data-name="Rectangle 28" width="33.068" height="27.056" rx="4" transform="translate(40.083 0)" fill="#9055a2"/>
    <rect id="Rectangle_28-3" data-name="Rectangle 28" width="33.068" height="27.056" rx="4" transform="translate(80.166 0)" fill="#9055a2"/>
    <rect id="Rectangle_28-4" data-name="Rectangle 28" width="33.068" height="27.056" rx="4" transform="translate(120.248 0)" fill="#00c25f"/>
    <rect id="Rectangle_28-5" data-name="Rectangle 28" width="33.068" height="27.056" rx="4" transform="translate(0 34.07)" fill="#69b8eb"/>
    <rect id="Rectangle_28-6" data-name="Rectangle 28" width="33.068" height="27.056" rx="4" transform="translate(40.083 34.07)" fill="#69b8eb"/>
    <rect id="Rectangle_28-7" data-name="Rectangle 28" width="33.068" height="27.056" rx="4" transform="translate(80.166 34.07)" fill="#69b8eb"/>
    <rect id="Rectangle_28-8" data-name="Rectangle 28" width="33.068" height="27.056" rx="4" transform="translate(120.248 34.07)" fill="#1594e0"/>
    <rect id="Rectangle_28-9" data-name="Rectangle 28" width="33.068" height="27.056" rx="4" transform="translate(0 68.141)" fill="#69b8eb"/>
    <rect id="Rectangle_28-10" data-name="Rectangle 28" width="33.068" height="27.056" rx="4" transform="translate(40.083 68.141)" fill="#69b8eb"/>
    <rect id="Rectangle_28-11" data-name="Rectangle 28" width="33.068" height="27.056" rx="4" transform="translate(80.166 68.141)" fill="#69b8eb"/>
    <rect id="Rectangle_28-12" data-name="Rectangle 28" width="33.068" height="27.056" rx="4" transform="translate(0 102.211)" fill="#69b8eb"/>
    <rect id="Rectangle_28-13" data-name="Rectangle 28" width="33.068" height="27.056" rx="4" transform="translate(40.083 102.211)" fill="#69b8eb"/>
    <rect id="Rectangle_28-14" data-name="Rectangle 28" width="33.068" height="27.056" rx="4" transform="translate(80.166 102.211)" fill="#69b8eb"/>
    <rect id="Rectangle_28-15" data-name="Rectangle 28" width="33.068" height="27.056" rx="4" transform="translate(0 136.281)" fill="#69b8eb"/>
    <rect id="Rectangle_28-16" data-name="Rectangle 28" width="33.068" height="27.056" rx="4" transform="translate(40.083 136.281)" fill="#69b8eb"/>
    <rect id="Rectangle_28-17" data-name="Rectangle 28" width="33.068" height="27.056" rx="4" transform="translate(80.166 136.281)" fill="#69b8eb"/>
    <rect id="Rectangle_28-18" data-name="Rectangle 28" width="33.068" height="95.197" rx="4" transform="translate(120.248 68.141)" fill="#ff8c00"/>
    <g id="directions_car-24px" transform="translate(125.259 104.215)">
      <path id="Path_107" data-name="Path 107" d="M0,0H24.05V24.05H0Z" transform="translate(0 0)" fill="none"/>
      <path id="Path_108" data-name="Path 108" d="M15.953,1.012A1.5,1.5,0,0,0,14.53,0H3.507A1.507,1.507,0,0,0,2.084,1.012L0,7.014v8.017a1,1,0,0,0,1,1H2a1,1,0,0,0,1-1v-1H15.031v1a1,1,0,0,0,1,1h1a1,1,0,0,0,1-1V7.014ZM3.507,11.023a1.5,1.5,0,1,1,1.5-1.5A1.5,1.5,0,0,1,3.507,11.023Zm11.023,0a1.5,1.5,0,1,1,1.5-1.5A1.5,1.5,0,0,1,14.53,11.023ZM2,6.012,3.507,1.5H14.53l1.5,4.509Z" transform="translate(3.006 5.01)" fill="#fff"/>
    </g>
  </g>
</svg>
