<svg xmlns="http://www.w3.org/2000/svg" width="124" height="37.434" viewBox="0 0 124 37.434">
  <g id="MS_FullColor_reversed_2019" transform="translate(-138.9 -156.02)">
    <g id="Group_45" data-name="Group 45" transform="translate(138.9 156.02)">
      <g id="Group_42" data-name="Group 42" transform="translate(0 8.454)">
        <path id="Path_28" data-name="Path 28" d="M208.368,210.22s-1.585-1.28-7.468.579c0,0-9.266,2.682-8.5,5.548,0,0,0,2.865,10.333,4.511,0,0,3.322.457,0,1.433,0,0-12.65,6.1-16.125.762H138.9v2.195h46.545s.671,3.292,9.327,1.8c0,0,8.2-1.341,12.894-4.816,0,0,3.231-1.311-4.45-3.6,0,0-11.674-1.616-5.578-4.237,0,0,5.06-2.774,9.632-2.256C207.3,212.11,210.41,211.805,208.368,210.22Z" transform="translate(-138.9 -201.854)" fill="#ff8c00"/>
        <path id="Path_29" data-name="Path 29" d="M388.819,205.35s3.749-4.389.884-4.511c0,0-8.626-.244-10.455,6.736a10.7,10.7,0,0,1-.274-2.408s0-3.383-2.774-3.719c0,0-1.25-.671-4.908,3.109,0,0-2.56,3.079-.945-1.219,0,0,3.993-12.345,8.84-16.887a1.1,1.1,0,0,0,.213-1.951,1.4,1.4,0,0,0-2.286-.213,73.949,73.949,0,0,0-9.175,18.655s-1.92,8.626,2.439,5.609c0,0,5.548-6.157,5.883-3.414a12.032,12.032,0,0,0,3.109,7.346,2.4,2.4,0,0,0,2.9-.579s.914-.61-.671-.914a3.639,3.639,0,0,1-1.737-1.676c.793.091,2.286-.244,4.969-2.195,0,0,1.372-1.555,1.1,0a2.623,2.623,0,0,0,2.865,2.835s1.341-.061.031-1.707A2.821,2.821,0,0,1,388.819,205.35Zm-1.006-2.591c-.7,1.158-5.792,4.146-5.792,4.146-1.006.427-.4-.335-.4-.335,1.524-3.018,6.066-4.176,6.066-4.176C388.209,202.241,387.813,202.759,387.813,202.759Z" transform="translate(-297.831 -183.755)" fill="#ff8c00"/>
        <path id="Path_30" data-name="Path 30" d="M450.115,242.015s-.64-.244-1.311.762l-3.688,5s-3.444,2.195-2.865-3.353c0,0,.579-4.115,2.317-2.926,0,0,.549.244.183,2.5,0,0-.3,1.768.335.4,0,0,3.658-6.889,5.609-4.206C450.694,240.186,451.73,241.71,450.115,242.015Z" transform="translate(-349.739 -222.554)" fill="#ff8c00"/>
        <path id="Path_31" data-name="Path 31" d="M477.274,199.048a1.056,1.056,0,0,1,1.92,0s.823,1.067-1.25,3.993c0,0-4.542,7.559-5.334,9.541,0,0-2.865,5.3,0,3.444a74.24,74.24,0,0,0,9.815-6.8s2.317-1.25,1.28.884c0,0-1.067,1.555-5.822,5.151a1.635,1.635,0,0,0-.793,1.951s.366,1.494,3.719,0c0,0,3.627-2.134,2.713.091a6.609,6.609,0,0,1-6.98,2.743s-1.616-.549-1.616-2.012c0,0,.061-.975-1.036-.183,0,0-4.908,3.688-5.09-.793a15.662,15.662,0,0,1,3.048-7.895C471.818,209.168,476.908,200.663,477.274,199.048Z" transform="translate(-368.241 -193.944)" fill="#ff8c00"/>
      </g>
      <g id="Group_43" data-name="Group 43" transform="translate(43.619 0)">
        <path id="Path_32" data-name="Path 32" d="M282,212.03v1.829c.061.03.091.03.152.061V212A.275.275,0,0,1,282,212.03Z" transform="translate(-282 -194.936)" fill="#1594e0"/>
        <path id="Path_33" data-name="Path 33" d="M331.054,174.835a1.964,1.964,0,0,1,1.372-.671,1.846,1.846,0,0,1,1.189.488,36.823,36.823,0,0,1,13.107-1.92s-5.426,4.908-.061,7.011c0,0,5.7.671,7.559,2.256a18.414,18.414,0,0,0,4.694,1.219c.335-.64.671-1.25.945-1.768a10.2,10.2,0,0,0-2.987-.61,4.007,4.007,0,0,1-2.195-.732,16.136,16.136,0,0,0-7.011-1.981s-2.591.183-.793-2.652a8.49,8.49,0,0,1,3.292-2.774s1.128-.732.457-1.341c0,0-.183-1.067-5.609-.518,0,0-10.15.244-15.729,3.78,0,0-.884.884-3.262.853,0,0-6.279-.183-10.181,1.92a3.05,3.05,0,0,1-1.8,1.006,16.884,16.884,0,0,1-3.566.732s-3.963.274-4.054,2.987a21.18,21.18,0,0,0-4.725.4v1.676a20.325,20.325,0,0,1,2.865-.183s5.761.274,6.279-1.4c0,0,.183-.579-.975-.64,0,0-1.981-.274.335-.793,0,0,4.816-.7,6.493-2.042,0,0,2.195-1.585,8.535-1.859,0,0,3.627.213,4.633-1.006a2.105,2.105,0,0,1,.3-.152c.518-.762.823-1.189.823-1.219C331.054,174.866,331.054,174.835,331.054,174.835Z" transform="translate(-295.695 -166.215)" fill="#1594e0"/>
        <path id="Path_34" data-name="Path 34" d="M514.145,156.166s-.732-.793-2.652,1.311a38.059,38.059,0,0,0-8.931,9.388s-.366.823-.762,1.8a1.948,1.948,0,0,1,.7.64c.091.122.64.975-.274,2.926a3.342,3.342,0,0,0,.914-1.189s.579-5.609,8.748-11c0,0-1.463,3.292-.793,9.663,0,0,.213.793-.457.64,0,0-1.737-.03-1.189,2.53a1.782,1.782,0,0,1,.061,1.646s-.671,1.311,1.006,2.987c0,0,3.566,4.847,1.341,3.749a54.437,54.437,0,0,0-6.34-3.963,1.747,1.747,0,0,0-2.53,0s-1.4,1.737.732,1.707c0,0,.183-.853.853-.213,0,0,.335.183.853.488a2.735,2.735,0,0,1,1.006-.274.8.8,0,0,1,.732.366,1.153,1.153,0,0,1,.061.914,42.253,42.253,0,0,1,5.151,3.353s.4,1.189,1.189,1.006c0,0,2.042.457,1.128-2.591,0,0-1.006-4.237-2.926-5.944a1.2,1.2,0,0,1-.274-1.311,1.372,1.372,0,0,0,.213-1.92s-.793-.853.122-1.067c0,0,1.463.274,1.25-2.835,0,0-.823-6.95,1.859-11.065C514.938,157.873,515.852,156.959,514.145,156.166Z" transform="translate(-434.801 -156.02)" fill="#1594e0"/>
      </g>
      <path id="Path_35" data-name="Path 35" d="M528.58,256.9a1.262,1.262,0,0,1,1.28,1.25,1.243,1.243,0,0,1-1.28,1.25,1.25,1.25,0,1,1,0-2.5Zm0,.274a1.007,1.007,0,0,0,.031,2.012.946.946,0,0,0,.945-1.006.989.989,0,0,0-.975-1.006Zm-.213,1.616h-.274v-1.25a2.168,2.168,0,0,1,.488-.03.675.675,0,0,1,.427.091.386.386,0,0,1,.122.274.321.321,0,0,1-.244.3h0c.122.03.183.122.213.3a.69.69,0,0,0,.091.3h-.3a1.238,1.238,0,0,1-.091-.3.213.213,0,0,0-.244-.183h-.122l-.061.488Zm.03-.671h.122c.152,0,.274-.061.274-.183s-.091-.183-.274-.183a.228.228,0,0,0-.152.03l.03.335Z" transform="translate(-408.909 -226.15)" fill="#002a42"/>
      <g id="Group_44" data-name="Group 44" transform="translate(0 8.011)">
        <path id="Path_36" data-name="Path 36" d="M143.655,193.456l4.3,7.59,4.206-7.529v7.529h4.908V182.3h-3.993l-5.121,9.266-4.969-9.266H138.9v18.746h4.755Z" transform="translate(-138.9 -182.3)" fill="#fff"/>
        <path id="Path_37" data-name="Path 37" d="M207.857,198.272h6.035l1.128,2.774h5.06L212.46,182.3h-3.231L201.7,201.046h4.968Zm2.957-7.834,1.646,4.206h-3.231Z" transform="translate(-182.558 -182.3)" fill="#fff"/>
        <rect id="Rectangle_17" data-name="Rectangle 17" width="4.816" height="18.746" transform="translate(38.346 0)" fill="#fff"/>
        <path id="Path_38" data-name="Path 38" d="M335.756,232.2H330.3a23.121,23.121,0,0,0,5.456,1.433Z" transform="translate(-271.958 -216.99)" fill="#fff"/>
        <path id="Path_39" data-name="Path 39" d="M292.87,197.51h-3.9V182.3H284v18.746h14.418C294,199.735,293.053,198.181,292.87,197.51Z" transform="translate(-239.771 -182.3)" fill="#fff"/>
      </g>
    </g>
  </g>
</svg>
